<svg width="45" height="52" viewBox="0 0 45 52" fill="none" xmlns="http://www.w3.org/2000/svg">
<path d="M24.768 1.08799L43.264 19.584C43.9893 20.2667 44.352 21.12 44.352 22.144C44.352 23.168 43.9893 24.0427 43.264 24.768C42.5387 25.4933 41.664 25.856 40.64 25.856C39.616 25.856 38.7413 25.4933 38.016 24.768L25.856 12.608V48C25.856 49.024 25.4933 49.8987 24.768 50.624C24.0427 51.3493 23.168 51.712 22.144 51.712C21.12 51.712 20.2453 51.3493 19.52 50.624C18.7947 49.8987 18.432 49.024 18.432 48V12.608L6.272 24.832C5.58933 25.5573 4.736 25.92 3.712 25.92C2.688 25.92 1.81333 25.5573 1.088 24.832C0.362667 24.1067 0 23.232 0 22.208C0 21.184 0.362667 20.3093 1.088 19.584L19.52 1.08799C20.2453 0.362659 21.12 -7.62939e-06 22.144 -7.62939e-06C23.168 -7.62939e-06 24.0427 0.362659 24.768 1.08799Z" fill="#8899FF"/>
</svg>
