<svg width="48" height="48" viewBox="0 0 48 48" fill="none" xmlns="http://www.w3.org/2000/svg">
<path d="M42.624 -2.28882e-05C44.1173 -2.28882e-05 45.376 0.53331 46.4 1.59998C47.4667 2.62398 48 3.88264 48 5.37598V42.624C48 44.1173 47.4667 45.3973 46.4 46.464C45.376 47.488 44.1173 48 42.624 48H5.376C3.88267 48 2.60267 47.488 1.536 46.464C0.512 45.3973 0 44.1173 0 42.624V5.37598C0 3.88264 0.512 2.62398 1.536 1.59998C2.60267 0.53331 3.88267 -2.28882e-05 5.376 -2.28882e-05H42.624ZM42.624 5.37598H5.376V42.624H42.624V5.37598ZM18.624 37.376L40 16L36.224 12.224L18.624 29.76L11.776 22.848L8 26.624L18.624 37.376Z" fill="#8899FF"/>
</svg>
